<?xml version="1.0" encoding="UTF-8" standalone="no"?>
<!DOCTYPE svg PUBLIC "-//W3C//DTD SVG 1.1//EN"
 "http://www.w3.org/Graphics/SVG/1.1/DTD/svg11.dtd">
<!-- Generated by graphviz version 2.26.3 (20100126.1600)
 -->
<!-- Title: Graphical Class Hierarchy Pages: 1 -->
<svg width="354pt" height="70pt"
 viewBox="0.00 0.00 354.00 70.00" xmlns="http://www.w3.org/2000/svg" xmlns:xlink="http://www.w3.org/1999/xlink">
<g id="graph1" class="graph" transform="scale(1 1) rotate(0) translate(4 66)">
<title>Graphical Class Hierarchy</title>
<polygon fill="white" stroke="white" points="-4,5 -4,-66 351,-66 351,5 -4,5"/>
<!-- Node1 -->
<g id="node1" class="node"><title>Node1</title>
<a xlink:href="classVisitable.html" target="_top" xlink:title="Visitable">
<polygon fill="white" stroke="black" points="0,-20.5 0,-41.5 54,-41.5 54,-20.5 0,-20.5"/>
<text text-anchor="middle" x="27" y="-28.5" font-family="Helvetica,sans-Serif" font-size="10.00">Visitable</text>
</a>
</g>
<!-- Node2 -->
<g id="node3" class="node"><title>Node2</title>
<a xlink:href="classPersona.html" target="_top" xlink:title="Persona">
<polygon fill="white" stroke="black" points="90.5,-20.5 90.5,-41.5 143.5,-41.5 143.5,-20.5 90.5,-20.5"/>
<text text-anchor="middle" x="117" y="-28.5" font-family="Helvetica,sans-Serif" font-size="10.00">Persona</text>
</a>
</g>
<!-- Node1&#45;&gt;Node2 -->
<g id="edge2" class="edge"><title>Node1&#45;&gt;Node2</title>
<path fill="none" stroke="midnightblue" d="M64.0624,-31C72.8671,-31 82.0905,-31 90.3262,-31"/>
<polygon fill="midnightblue" stroke="midnightblue" points="64.003,-27.5001 54.003,-31 64.0029,-34.5001 64.003,-27.5001"/>
</g>
<!-- Node3 -->
<g id="node5" class="node"><title>Node3</title>
<a xlink:href="classProfessore.html" target="_top" xlink:title="Professore">
<polygon fill="white" stroke="black" points="180,-40.5 180,-61.5 244,-61.5 244,-40.5 180,-40.5"/>
<text text-anchor="middle" x="212" y="-48.5" font-family="Helvetica,sans-Serif" font-size="10.00">Professore</text>
</a>
</g>
<!-- Node2&#45;&gt;Node3 -->
<g id="edge4" class="edge"><title>Node2&#45;&gt;Node3</title>
<path fill="none" stroke="midnightblue" d="M153.544,-38.6934C162.178,-40.5112 171.324,-42.4366 179.752,-44.211"/>
<polygon fill="midnightblue" stroke="midnightblue" points="154.222,-35.2596 143.716,-36.6243 152.78,-42.1094 154.222,-35.2596"/>
</g>
<!-- Node5 -->
<g id="node9" class="node"><title>Node5</title>
<a xlink:href="classStudente.html" target="_top" xlink:title="Studente">
<polygon fill="white" stroke="black" points="184,-0.5 184,-21.5 240,-21.5 240,-0.5 184,-0.5"/>
<text text-anchor="middle" x="212" y="-8.5" font-family="Helvetica,sans-Serif" font-size="10.00">Studente</text>
</a>
</g>
<!-- Node2&#45;&gt;Node5 -->
<g id="edge8" class="edge"><title>Node2&#45;&gt;Node5</title>
<path fill="none" stroke="midnightblue" d="M153.792,-23.2543C163.769,-21.154 174.41,-18.9138 183.828,-16.9309"/>
<polygon fill="midnightblue" stroke="midnightblue" points="152.78,-19.8906 143.716,-25.3757 154.222,-26.7404 152.78,-19.8906"/>
</g>
<!-- Node4 -->
<g id="node7" class="node"><title>Node4</title>
<a xlink:href="classDottorando.html" target="_top" xlink:title="Dottorando">
<polygon fill="white" stroke="black" points="280.5,-20.5 280.5,-41.5 345.5,-41.5 345.5,-20.5 280.5,-20.5"/>
<text text-anchor="middle" x="313" y="-28.5" font-family="Helvetica,sans-Serif" font-size="10.00">Dottorando</text>
</a>
</g>
<!-- Node3&#45;&gt;Node4 -->
<g id="edge6" class="edge"><title>Node3&#45;&gt;Node4</title>
<path fill="none" stroke="midnightblue" d="M254.261,-42.6314C262.99,-40.903 272.056,-39.1077 280.378,-37.4598"/>
<polygon fill="midnightblue" stroke="midnightblue" points="253.364,-39.241 244.235,-44.6169 254.724,-46.1077 253.364,-39.241"/>
</g>
<!-- Node5&#45;&gt;Node4 -->
<g id="edge10" class="edge"><title>Node5&#45;&gt;Node4</title>
<path fill="none" stroke="midnightblue" d="M250.181,-18.5606C260.125,-20.5298 270.748,-22.6333 280.376,-24.5398"/>
<polygon fill="midnightblue" stroke="midnightblue" points="250.624,-15.0803 240.134,-16.5711 249.264,-21.947 250.624,-15.0803"/>
</g>
</g>
</svg>
