<?xml version="1.0" encoding="UTF-8" standalone="no"?>
<!DOCTYPE svg PUBLIC "-//W3C//DTD SVG 1.1//EN"
 "http://www.w3.org/Graphics/SVG/1.1/DTD/svg11.dtd">
<!-- Generated by graphviz version 2.26.3 (20100126.1600)
 -->
<!-- Title: Persona Pages: 1 -->
<svg width="208pt" height="726pt"
 viewBox="0.00 0.00 208.00 726.00" xmlns="http://www.w3.org/2000/svg" xmlns:xlink="http://www.w3.org/1999/xlink">
<g id="graph1" class="graph" transform="scale(1 1) rotate(0) translate(4 722)">
<title>Persona</title>
<polygon fill="white" stroke="white" points="-4,5 -4,-722 205,-722 205,5 -4,5"/>
<!-- Node1 -->
<g id="node1" class="node"><title>Node1</title>
<polygon fill="#bfbfbf" stroke="black" points="57.5,-410.5 57.5,-603.5 144.5,-603.5 144.5,-410.5 57.5,-410.5"/>
<text text-anchor="middle" x="101" y="-590.5" font-family="Helvetica,sans-Serif" font-size="10.00">Persona</text>
<polyline fill="none" stroke="black" points="57.5,-582.5 144.5,-582.5 "/>
<text text-anchor="start" x="65.5" y="-569.5" font-family="Helvetica,sans-Serif" font-size="10.00">&#45; nome</text>
<text text-anchor="start" x="65.5" y="-556.5" font-family="Helvetica,sans-Serif" font-size="10.00">&#45; cognome</text>
<polyline fill="none" stroke="black" points="57.5,-548.5 144.5,-548.5 "/>
<text text-anchor="start" x="65.5" y="-535.5" font-family="Helvetica,sans-Serif" font-size="10.00">+ ~Persona()</text>
<text text-anchor="start" x="65.5" y="-522.5" font-family="Helvetica,sans-Serif" font-size="10.00">+ getCognome()</text>
<text text-anchor="start" x="65.5" y="-509.5" font-family="Helvetica,sans-Serif" font-size="10.00">+ setCognome()</text>
<text text-anchor="start" x="65.5" y="-496.5" font-family="Helvetica,sans-Serif" font-size="10.00">+ getNome()</text>
<text text-anchor="start" x="65.5" y="-483.5" font-family="Helvetica,sans-Serif" font-size="10.00">+ setNome()</text>
<text text-anchor="start" x="65.5" y="-470.5" font-family="Helvetica,sans-Serif" font-size="10.00">+ printInfo()</text>
<text text-anchor="start" x="65.5" y="-457.5" font-family="Helvetica,sans-Serif" font-size="10.00"># Persona()</text>
<text text-anchor="start" x="65.5" y="-444.5" font-family="Helvetica,sans-Serif" font-size="10.00"># Persona()</text>
<text text-anchor="start" x="65.5" y="-431.5" font-family="Helvetica,sans-Serif" font-size="10.00">&#45; Persona()</text>
<text text-anchor="start" x="65.5" y="-418.5" font-family="Helvetica,sans-Serif" font-size="10.00">&#45; operator=()</text>
</g>
<!-- Node3 -->
<g id="node5" class="node"><title>Node3</title>
<a xlink:href="classProfessore.html" target="_top" xlink:title="{Professore\n|# corsi\l|+ ~Professore()\l+ aggiungiCorso()\l+ rimuoviCorso()\l+ printInfo()\l+ printCorsi()\l+ accept()\l# Professore()\l# Professore()\l&#45; Professore()\l&#45; operator=()\l}">
<polygon fill="white" stroke="black" points="0,-180 0,-360 94,-360 94,-180 0,-180"/>
<text text-anchor="middle" x="47" y="-347" font-family="Helvetica,sans-Serif" font-size="10.00">Professore</text>
<polyline fill="none" stroke="black" points="0,-339 94,-339 "/>
<text text-anchor="start" x="8" y="-326" font-family="Helvetica,sans-Serif" font-size="10.00"># corsi</text>
<polyline fill="none" stroke="black" points="0,-318 94,-318 "/>
<text text-anchor="start" x="8" y="-305" font-family="Helvetica,sans-Serif" font-size="10.00">+ ~Professore()</text>
<text text-anchor="start" x="8" y="-292" font-family="Helvetica,sans-Serif" font-size="10.00">+ aggiungiCorso()</text>
<text text-anchor="start" x="8" y="-279" font-family="Helvetica,sans-Serif" font-size="10.00">+ rimuoviCorso()</text>
<text text-anchor="start" x="8" y="-266" font-family="Helvetica,sans-Serif" font-size="10.00">+ printInfo()</text>
<text text-anchor="start" x="8" y="-253" font-family="Helvetica,sans-Serif" font-size="10.00">+ printCorsi()</text>
<text text-anchor="start" x="8" y="-240" font-family="Helvetica,sans-Serif" font-size="10.00">+ accept()</text>
<text text-anchor="start" x="8" y="-227" font-family="Helvetica,sans-Serif" font-size="10.00"># Professore()</text>
<text text-anchor="start" x="8" y="-214" font-family="Helvetica,sans-Serif" font-size="10.00"># Professore()</text>
<text text-anchor="start" x="8" y="-201" font-family="Helvetica,sans-Serif" font-size="10.00">&#45; Professore()</text>
<text text-anchor="start" x="8" y="-188" font-family="Helvetica,sans-Serif" font-size="10.00">&#45; operator=()</text>
</a>
</g>
<!-- Node1&#45;&gt;Node3 -->
<g id="edge4" class="edge"><title>Node1&#45;&gt;Node3</title>
<path fill="none" stroke="midnightblue" d="M76.6518,-400.139C73.621,-386.836 70.5451,-373.337 67.5789,-360.319"/>
<polygon fill="none" stroke="midnightblue" points="73.3241,-401.289 78.9582,-410.261 80.1492,-399.734 73.3241,-401.289"/>
</g>
<!-- Node5 -->
<g id="node9" class="node"><title>Node5</title>
<a xlink:href="classStudente.html" target="_top" xlink:title="{Studente\n|# voti\l|+ ~Studente()\l+ registraVoto()\l+ getVoto()\l+ getMediaVoti()\l+ printInfo()\l+ printVoti()\l+ accept()\l+ operator[]()\l# Studente()\l# Studente()\l&#45; Studente()\l&#45; operator=()\l}">
<polygon fill="white" stroke="black" points="111.5,-167 111.5,-373 200.5,-373 200.5,-167 111.5,-167"/>
<text text-anchor="middle" x="156" y="-360" font-family="Helvetica,sans-Serif" font-size="10.00">Studente</text>
<polyline fill="none" stroke="black" points="111.5,-352 200.5,-352 "/>
<text text-anchor="start" x="119.5" y="-339" font-family="Helvetica,sans-Serif" font-size="10.00"># voti</text>
<polyline fill="none" stroke="black" points="111.5,-331 200.5,-331 "/>
<text text-anchor="start" x="119.5" y="-318" font-family="Helvetica,sans-Serif" font-size="10.00">+ ~Studente()</text>
<text text-anchor="start" x="119.5" y="-305" font-family="Helvetica,sans-Serif" font-size="10.00">+ registraVoto()</text>
<text text-anchor="start" x="119.5" y="-292" font-family="Helvetica,sans-Serif" font-size="10.00">+ getVoto()</text>
<text text-anchor="start" x="119.5" y="-279" font-family="Helvetica,sans-Serif" font-size="10.00">+ getMediaVoti()</text>
<text text-anchor="start" x="119.5" y="-266" font-family="Helvetica,sans-Serif" font-size="10.00">+ printInfo()</text>
<text text-anchor="start" x="119.5" y="-253" font-family="Helvetica,sans-Serif" font-size="10.00">+ printVoti()</text>
<text text-anchor="start" x="119.5" y="-240" font-family="Helvetica,sans-Serif" font-size="10.00">+ accept()</text>
<text text-anchor="start" x="119.5" y="-227" font-family="Helvetica,sans-Serif" font-size="10.00">+ operator[]()</text>
<text text-anchor="start" x="119.5" y="-214" font-family="Helvetica,sans-Serif" font-size="10.00"># Studente()</text>
<text text-anchor="start" x="119.5" y="-201" font-family="Helvetica,sans-Serif" font-size="10.00"># Studente()</text>
<text text-anchor="start" x="119.5" y="-188" font-family="Helvetica,sans-Serif" font-size="10.00">&#45; Studente()</text>
<text text-anchor="start" x="119.5" y="-175" font-family="Helvetica,sans-Serif" font-size="10.00">&#45; operator=()</text>
</a>
</g>
<!-- Node1&#45;&gt;Node5 -->
<g id="edge8" class="edge"><title>Node1&#45;&gt;Node5</title>
<path fill="none" stroke="midnightblue" d="M125.712,-400.515C127.806,-391.489 129.923,-382.37 132.011,-373.369"/>
<polygon fill="none" stroke="midnightblue" points="122.301,-399.729 123.45,-410.261 129.12,-401.311 122.301,-399.729"/>
</g>
<!-- Node2 -->
<g id="node2" class="node"><title>Node2</title>
<a xlink:href="classVisitable.html" target="_top" xlink:title="{Visitable\n||+ ~Visitable()\l+ accept()\l}">
<polygon fill="white" stroke="black" points="63.5,-641 63.5,-717 138.5,-717 138.5,-641 63.5,-641"/>
<text text-anchor="middle" x="101" y="-704" font-family="Helvetica,sans-Serif" font-size="10.00">Visitable</text>
<polyline fill="none" stroke="black" points="63.5,-696 138.5,-696 "/>
<text text-anchor="middle" x="101" y="-683" font-family="Helvetica,sans-Serif" font-size="10.00"> </text>
<polyline fill="none" stroke="black" points="63.5,-675 138.5,-675 "/>
<text text-anchor="start" x="71.5" y="-662" font-family="Helvetica,sans-Serif" font-size="10.00">+ ~Visitable()</text>
<text text-anchor="start" x="71.5" y="-649" font-family="Helvetica,sans-Serif" font-size="10.00">+ accept()</text>
</a>
</g>
<!-- Node2&#45;&gt;Node1 -->
<g id="edge2" class="edge"><title>Node2&#45;&gt;Node1</title>
<path fill="none" stroke="midnightblue" d="M101,-630.763C101,-622.235 101,-613.09 101,-603.773"/>
<polygon fill="none" stroke="midnightblue" points="97.5001,-630.828 101,-640.828 104.5,-630.828 97.5001,-630.828"/>
</g>
<!-- Node4 -->
<g id="node7" class="node"><title>Node4</title>
<a xlink:href="classDottorando.html" target="_top" xlink:title="{Dottorando\n||+ ~Dottorando()\l+ printInfo()\l+ accept()\l# Dottorando()\l&#45; Dottorando()\l&#45; operator=()\l}">
<polygon fill="white" stroke="black" points="58,-1 58,-129 144,-129 144,-1 58,-1"/>
<text text-anchor="middle" x="101" y="-116" font-family="Helvetica,sans-Serif" font-size="10.00">Dottorando</text>
<polyline fill="none" stroke="black" points="58,-108 144,-108 "/>
<text text-anchor="middle" x="101" y="-95" font-family="Helvetica,sans-Serif" font-size="10.00"> </text>
<polyline fill="none" stroke="black" points="58,-87 144,-87 "/>
<text text-anchor="start" x="66" y="-74" font-family="Helvetica,sans-Serif" font-size="10.00">+ ~Dottorando()</text>
<text text-anchor="start" x="66" y="-61" font-family="Helvetica,sans-Serif" font-size="10.00">+ printInfo()</text>
<text text-anchor="start" x="66" y="-48" font-family="Helvetica,sans-Serif" font-size="10.00">+ accept()</text>
<text text-anchor="start" x="66" y="-35" font-family="Helvetica,sans-Serif" font-size="10.00"># Dottorando()</text>
<text text-anchor="start" x="66" y="-22" font-family="Helvetica,sans-Serif" font-size="10.00">&#45; Dottorando()</text>
<text text-anchor="start" x="66" y="-9" font-family="Helvetica,sans-Serif" font-size="10.00">&#45; operator=()</text>
</a>
</g>
<!-- Node3&#45;&gt;Node4 -->
<g id="edge6" class="edge"><title>Node3&#45;&gt;Node4</title>
<path fill="none" stroke="midnightblue" d="M73.4101,-169.74C77.053,-155.91 80.7103,-142.026 84.1164,-129.095"/>
<polygon fill="none" stroke="midnightblue" points="69.9265,-169.224 70.7638,-179.786 76.6956,-171.007 69.9265,-169.224"/>
</g>
<!-- Node5&#45;&gt;Node4 -->
<g id="edge10" class="edge"><title>Node5&#45;&gt;Node4</title>
<path fill="none" stroke="midnightblue" d="M125.674,-156.968C123.125,-147.467 120.609,-138.087 118.214,-129.161"/>
<polygon fill="none" stroke="midnightblue" points="122.367,-158.148 128.339,-166.899 129.128,-156.334 122.367,-158.148"/>
</g>
</g>
</svg>
